<?xml version="1.0" encoding="utf-8"?>
<!-- Generator: Adobe Illustrator 15.0.0, SVG Export Plug-In . SVG Version: 6.00 Build 0)  -->
<!DOCTYPE svg PUBLIC "-//W3C//DTD SVG 1.1//EN" "http://www.w3.org/Graphics/SVG/1.1/DTD/svg11.dtd">
<svg version="1.1" id="Layer_1" xmlns="http://www.w3.org/2000/svg" xmlns:xlink="http://www.w3.org/1999/xlink" x="0px" y="0px"
	 width="50px" height="40.667px" viewBox="0 0 50 40.667" enable-background="new 0 0 50 40.667" xml:space="preserve">
<g>
	<g>
		<path fill="#1C1C1C" d="M24.5,0.672L6.195,7.2l2.793,24.203L24.5,39.995l15.512-8.592L42.805,7.2L24.5,0.672z M31.637,30.675
			l-2.3-5.74h-9.713l-2.3,5.74h-4.267L24.5,5.018l11.403,25.657H31.637z"/>
		<polygon fill="#1C1C1C" points="21.157,21.427 27.843,21.427 24.5,13.354 		"/>
	</g>
	<g>
		<polygon fill="#020202" points="24.5,0.672 24.5,5.018 24.5,5.037 24.5,5.124 24.52,5.08 35.923,30.737 31.656,30.737 
			29.356,24.997 24.5,24.997 24.5,39.995 40.012,31.403 42.805,7.2 		"/>
		<polygon fill="#020202" points="24.52,13.416 24.5,13.463 24.5,21.427 27.862,21.427 		"/>
	</g>
</g>
</svg>
