<?xml version="1.0" encoding="utf-8"?>
<!-- Generator: Adobe Illustrator 15.0.0, SVG Export Plug-In . SVG Version: 6.00 Build 0)  -->
<!DOCTYPE svg PUBLIC "-//W3C//DTD SVG 1.1//EN" "http://www.w3.org/Graphics/SVG/1.1/DTD/svg11.dtd">
<svg version="1.1" id="Layer_1" xmlns="http://www.w3.org/2000/svg" xmlns:xlink="http://www.w3.org/1999/xlink" x="0px" y="0px"
	 width="50px" height="40.667px" viewBox="0 0 50 40.667" enable-background="new 0 0 50 40.667" xml:space="preserve">
<path fill="#050505" d="M25.913,0.275C14.915,0.275,6,9.19,6,20.188c0,10.998,8.915,19.913,19.913,19.913
	c10.997,0,19.912-8.915,19.912-19.913C45.825,9.19,36.91,0.275,25.913,0.275z M25.973,2.314c4.578,0,8.753,1.722,11.915,4.552
	c-0.604,0.023-1.327,0.235-2.139,1.086c-1.199,1.259-0.985,3.826,0.721,6.118c1.918,2.579,1.859,6.298,1.438,7.616
	c-0.419,1.32-3.059,9.357-3.059,9.357L28.611,11.67c0,0,1.637,0.006,2.16-0.18c0.936-0.331,0.419-1.679-0.961-1.573
	c-3.021,0.232-7.719,0.149-8.756,0.014c-1.379-0.18-0.78,1.439-0.479,1.439c0.299,0,2.398,0.12,2.398,0.12l2.399,8.037
	l-3.958,11.516l-6.418-19.612c0,0,0.6,0.179,1.859,0c1.26-0.181,0.42-1.5,0-1.5c-0.34,0-4.272,0.237-5.745,0.327
	c0.014-0.021,0.027-0.042,0.042-0.063C14.364,5.439,19.804,2.314,25.973,2.314z M8.099,20.188c0-2.468,0.502-4.817,1.407-6.956
	l8.485,22.95C12.127,33.251,8.099,27.19,8.099,20.188z M20.849,37.314l5.378-15.566l5.612,15.327
	c-1.837,0.639-3.811,0.986-5.866,0.986C24.192,38.062,22.473,37.8,20.849,37.314z M35.085,35.566
	c1.122-3.045,5.922-16.181,6.662-19.937c0.296-1.499,0.114-3.013-0.274-4.348c1.511,2.621,2.374,5.663,2.374,8.906
	C43.847,26.73,40.33,32.451,35.085,35.566z"/>
</svg>
