<?xml version="1.0" encoding="utf-8"?>
<!-- Generator: Adobe Illustrator 15.0.0, SVG Export Plug-In . SVG Version: 6.00 Build 0)  -->
<!DOCTYPE svg PUBLIC "-//W3C//DTD SVG 1.1//EN" "http://www.w3.org/Graphics/SVG/1.1/DTD/svg11.dtd">
<svg version="1.1" id="Layer_1" xmlns="http://www.w3.org/2000/svg" xmlns:xlink="http://www.w3.org/1999/xlink" x="0px" y="0px"
	 width="50px" height="40.667px" viewBox="0 0 50 40.667" enable-background="new 0 0 50 40.667" xml:space="preserve">
<path fill="#050505" d="M8.147,0.333l3.165,35.62l14.446,4.131l14.387-4.188l3.051-35.562H8.147z M24.722,32.225l-8.115-2.351
	l-0.633-6.827l2.878,0.574l0.344,2.296l2.417,0.744l-0.69-19.1h3.798V32.225z M36.217,11.862h-5.871v4.588h5.525l-1.094,13.423
	l-8.345,2.465v-4.531l5.18-1.262l0.346-5.85l-5.525,0.229l-0.058-13.25h10.244L36.217,11.862z"/>
<path fill="#353535" d="M25.671,3.029v33.956l11.771-3.326l2.818-30.63H25.671z M36.175,11.748h-5.871v4.588h5.525L34.735,29.76
	l-8.345,2.465v-4.531l5.18-1.262l0.346-5.85l-5.525,0.229l-0.058-13.25h10.244L36.175,11.748z"/>
</svg>
