<?xml version="1.0" encoding="utf-8"?>
<!-- Generator: Adobe Illustrator 15.0.0, SVG Export Plug-In . SVG Version: 6.00 Build 0)  -->
<!DOCTYPE svg PUBLIC "-//W3C//DTD SVG 1.1//EN" "http://www.w3.org/Graphics/SVG/1.1/DTD/svg11.dtd">
<svg version="1.1" id="Layer_1" xmlns="http://www.w3.org/2000/svg" xmlns:xlink="http://www.w3.org/1999/xlink" x="0px" y="0px"
	 width="50px" height="40.667px" viewBox="0 0 50 40.667" enable-background="new 0 0 50 40.667" xml:space="preserve">
<path d="M17.754,40.519c-0.583,0-1.154-0.104-1.708-0.316c-2.302-0.88-3.523-3.383-2.89-5.696l-0.025-0.01l0.15-0.379L24.997,3.698
	c0.176-0.452,0.096-1.523,0.01-2.122c-0.026-0.142-0.026-0.269,0.014-0.401l0.014-0.039l0.01-0.025V1.099l0.017-0.031
	c0.179-0.489,0.752-0.735,1.688-0.735c1.127,0,2.682,0.352,4.271,0.959c1.334,0.515,2.551,1.154,3.404,1.8
	c1.008,0.753,1.409,1.43,1.185,2.01l-0.053,0.074l-0.027,0.026c-0.074,0.102-0.15,0.201-0.251,0.276
	c-0.525,0.454-1.279,1.23-1.406,1.583L22.044,37.906l-0.027-0.011c-0.827,1.588-2.44,2.607-4.258,2.614h-0.01L17.754,40.519z
	 M14.091,34.293l-0.033,0.084c-0.749,2.011,0.271,4.281,2.284,5.053c0.454,0.177,0.922,0.259,1.402,0.259
	c1.626,0,3.064-0.98,3.663-2.512l0.045-0.103L33.105,6.784c0.244-0.653,1.406-1.708,1.64-1.908l0.026-0.027
	c0.02-0.025,0.033-0.025,0.033-0.05c0-0.101-0.103-0.453-0.933-1.081c-0.802-0.603-1.933-1.205-3.188-1.682
	c-1.453-0.55-2.961-0.903-3.965-0.903c-0.653,0-0.878,0.137-0.913,0.21v0.067c0.027,0.174,0.246,1.733-0.056,2.537L14.091,34.289
	V34.293L14.091,34.293z M29.078,15.026c0,0-1.614,1.857-3.086,2.527c-1.474,0.667-2.561,0.49-3.885,1.266
	c-1.321,0.772-1.989,1.847-1.989,1.847l-5.384,14.002c-0.583,1.58,0.282,3.432,1.884,4.052c1.607,0.618,3.416-0.201,4.039-1.769
	L29.078,15.026L29.078,15.026z M20.821,31.745c0.174-0.068,0.376,0,0.445,0.177c0.071,0.174,0,0.371-0.176,0.441
	c-0.174,0.072-0.376,0-0.446-0.174C20.576,32.027,20.645,31.828,20.821,31.745z M19.124,28.728c-0.255,0.113-0.56,0-0.665-0.26
	c-0.117-0.255,0-0.56,0.258-0.664c0.258-0.117,0.561,0,0.667,0.255c0.124,0.251,0.013,0.526-0.26,0.654V28.728z M19.603,26.892
	c-0.206-0.481,0-1.043,0.481-1.27c0.477-0.207,1.029,0,1.255,0.478c0.203,0.484,0,1.045-0.477,1.268
	c-0.502,0.212-1.053,0-1.282-0.477L19.603,26.892L19.603,26.892z M23.665,23.112c0.256-0.124,0.561,0,0.666,0.251
	c0.117,0.258,0,0.563-0.256,0.669c-0.261,0.117-0.564,0-0.669-0.26c-0.124-0.255,0-0.56,0.259-0.666V23.112z M21.5,20.802
	c0.176-0.07,0.378,0,0.445,0.177c0.072,0.174,0,0.377-0.174,0.445c-0.174,0.069-0.378,0-0.443-0.175
	C21.253,21.073,21.337,20.87,21.5,20.802L21.5,20.802z M27.145,2.242c0.167-0.437,1.662-0.271,3.34,0.378
	c1.673,0.643,2.895,1.522,2.729,1.959c-0.175,0.442-1.669,0.274-3.342-0.37c-1.684-0.645-2.903-1.523-2.733-1.969h0.006V2.242z"/>
</svg>
