<?xml version="1.0" encoding="utf-8"?>
<!-- Generator: Adobe Illustrator 15.0.0, SVG Export Plug-In . SVG Version: 6.00 Build 0)  -->
<!DOCTYPE svg PUBLIC "-//W3C//DTD SVG 1.1//EN" "http://www.w3.org/Graphics/SVG/1.1/DTD/svg11.dtd">
<svg version="1.1" id="Layer_1" xmlns="http://www.w3.org/2000/svg" xmlns:xlink="http://www.w3.org/1999/xlink" x="0px" y="0px"
	 width="50px" height="40.667px" viewBox="0 0 50 40.667" enable-background="new 0 0 50 40.667" xml:space="preserve">
<rect x="4.821" y="2.41" width="8.424" height="36.473"/>
<path d="M35.843,0.428v14.173c0,0-1.289-2.478-7.334-2.577c-6.046-0.1-11.299,5.054-11.596,14.271
	c-0.297,9.218,6.244,13.28,11.498,13.479c5.252,0.198,8.026-4.658,8.026-4.658l0.694,3.767h7.037V0.428H35.843z M36.005,27.682
	c0.037,1.34-1.108,5.502-5.47,5.403c-4.359-0.1-5.396-4.931-5.396-7.506c0-2.579,1.388-7.51,5.396-7.51
	c4.01,0,5.308,3.271,5.507,5.451C36.042,23.521,35.972,26.489,36.005,27.682z"/>
</svg>
