<?xml version="1.0" encoding="utf-8"?>
<!-- Generator: Adobe Illustrator 15.0.0, SVG Export Plug-In . SVG Version: 6.00 Build 0)  -->
<!DOCTYPE svg PUBLIC "-//W3C//DTD SVG 1.1//EN" "http://www.w3.org/Graphics/SVG/1.1/DTD/svg11.dtd">
<svg version="1.1" id="Layer_1" xmlns="http://www.w3.org/2000/svg" xmlns:xlink="http://www.w3.org/1999/xlink" x="0px" y="0px"
	 width="50px" height="40.667px" viewBox="0 0 50 40.667" enable-background="new 0 0 50 40.667" xml:space="preserve">
<path fill="#050505" d="M7.504,0.333l3.145,35.507L25,39.959l14.296-4.174l3.03-35.452H7.504z M35.479,11.883l-10.064,4.231
	l9.378-0.058l-1.086,13.322L24.9,32.125l-9.148-2.573l-0.572-6.633l4.232-0.115l0.514,3.259l4.918,1.202l4.574-0.973l0.686-5.832
	H15.065l-0.743-4.002L24.5,12.227l-10.292-0.286l-0.686-4.175h21.957V11.883z"/>
<g>
	<polygon fill="#353535" points="24.915,2.833 24.915,7.75 35.607,7.75 35.607,11.868 25.543,16.099 34.921,16.041 33.835,29.363 
		25.029,32.109 24.915,32.077 24.915,36.683 36.608,33.367 39.409,2.833 	"/>
	<polygon fill="#353535" points="29.547,26.276 30.232,20.444 24.915,20.444 24.915,27.235 24.973,27.249 	"/>
</g>
</svg>
