<?xml version="1.0" encoding="utf-8"?>
<!-- Generator: Adobe Illustrator 15.0.0, SVG Export Plug-In . SVG Version: 6.00 Build 0)  -->
<!DOCTYPE svg PUBLIC "-//W3C//DTD SVG 1.1//EN" "http://www.w3.org/Graphics/SVG/1.1/DTD/svg11.dtd">
<svg version="1.1" id="Layer_1" xmlns="http://www.w3.org/2000/svg" xmlns:xlink="http://www.w3.org/1999/xlink" x="0px" y="0px"
	 width="50px" height="40.667px" viewBox="0 0 50 40.667" enable-background="new 0 0 50 40.667" xml:space="preserve">
<path fill="#050505" d="M7.914,0.333l3.148,35.547l14.367,4.12l14.311-4.179l3.034-35.489H7.914z M35.869,11.81H19.212l0.343,4.694
	h15.8l-1.146,13.395l-8.865,2.462l-9.051-2.575l-0.572-6.642h4.407l0.401,3.32l4.815,1.431l4.801-1.374l0.516-5.781H15.606
	l-1.26-13.165h21.996L35.869,11.81z"/>
<g>
	<polygon fill="#353535" points="30.66,20.711 25.344,20.711 25.344,27.866 30.145,26.492 	"/>
	<polygon fill="#353535" points="25.344,3.024 25.344,7.546 36.341,7.546 35.869,11.781 25.344,11.781 25.344,16.475 35.354,16.475 
		34.208,29.87 25.344,32.332 25.344,36.911 37.049,33.59 39.854,3.024 	"/>
</g>
</svg>
