<?xml version="1.0" encoding="utf-8"?>
<!-- Generator: Adobe Illustrator 15.0.0, SVG Export Plug-In . SVG Version: 6.00 Build 0)  -->
<!DOCTYPE svg PUBLIC "-//W3C//DTD SVG 1.1//EN" "http://www.w3.org/Graphics/SVG/1.1/DTD/svg11.dtd">
<svg version="1.1" id="Layer_1" xmlns="http://www.w3.org/2000/svg" xmlns:xlink="http://www.w3.org/1999/xlink" x="0px" y="0px"
	 width="50px" height="40.667px" viewBox="0 0 50 40.667" enable-background="new 0 0 50 40.667" xml:space="preserve">
<path fill="#020202" d="M20.967,1.738c-7.289-2.902-20.611,0-20.611,0v37.866h8.767V25.707c0,0,8.411,0.8,14.014-2.739
	C30.76,18.152,30.106,5.375,20.967,1.738z M9.215,18.619V7.426c0,0,9.514-3.17,10.073,5.038C19.848,20.67,9.215,18.619,9.215,18.619
	z"/>
<path fill="#020202" d="M48.574,12.835l-1.492,5.503c0,0-4.106-1.482-5.876-1.585c-4.011-0.233-5.503,3.637-0.84,4.756
	c1.47,0.353,4.453,1.306,6.576,3.45c4.086,4.133,4.103,11.286-3.89,14.271c-6.172,2.305-13.69-0.933-14.67-1.306l1.537-6.156
	c0,0,4.396,1.903,6.903,2.146c3.87,0.373,5.969-3.218,2.094-5.036c-5.171-2.427-10.676-3.077-9.462-10.632
	c1.212-7.555,9.138-7.544,11.47-7.555C44.33,10.676,48.574,12.835,48.574,12.835z"/>
</svg>
