<?xml version="1.0" encoding="utf-8"?>
<!-- Generator: Adobe Illustrator 15.0.0, SVG Export Plug-In . SVG Version: 6.00 Build 0)  -->
<!DOCTYPE svg PUBLIC "-//W3C//DTD SVG 1.1//EN" "http://www.w3.org/Graphics/SVG/1.1/DTD/svg11.dtd">
<svg version="1.1" id="Layer_1" xmlns="http://www.w3.org/2000/svg" xmlns:xlink="http://www.w3.org/1999/xlink" x="0px" y="0px"
	 width="50px" height="40.667px" viewBox="0 0 50 40.667" enable-background="new 0 0 50 40.667" xml:space="preserve">
<path id="FUSION-9" d="M0,37.816h6.142V24.884h13.555v-5.837H6.142V7.322h16.732V1.434H0V37.816z M25.358,36.506l0.583-5.573
	c0,0,5.188,0.735,9.636,0.735c5.346,0,7.889-3.365,7.889-8.834c0-0.051-4.501,1.421-7.467,1.421
	c-7.518,0-11.858-3.575-11.858-11.042c0-7.519,5.028-11.62,12.602-11.62c9.053,0,13.129,6.152,13.129,17.876
	c0,13.671-5.453,18.035-14.294,18.035C31.129,37.505,25.358,36.506,25.358,36.506z M36.527,18.628c3.127,0,6.992-1.313,6.992-1.313
	c-0.054-5.625-2.065-9.885-6.777-9.885c-3.76,0-6.143,2.05-6.143,5.784C30.6,16.999,32.718,18.628,36.527,18.628z"/>
</svg>
