<?xml version="1.0" encoding="utf-8"?>
<!-- Generator: Adobe Illustrator 15.0.0, SVG Export Plug-In . SVG Version: 6.00 Build 0)  -->
<!DOCTYPE svg PUBLIC "-//W3C//DTD SVG 1.1//EN" "http://www.w3.org/Graphics/SVG/1.1/DTD/svg11.dtd">
<svg version="1.1" id="Layer_1" xmlns="http://www.w3.org/2000/svg" xmlns:xlink="http://www.w3.org/1999/xlink" x="0px" y="0px"
	 width="50px" height="40.667px" viewBox="0 0 50 40.667" enable-background="new 0 0 50 40.667" xml:space="preserve">
<path d="M4.296,39.896V1.477c0,0,9.613,18.247,9.729,18.65C14.082,20.242,9.074,32.842,4.296,39.896z"/>
<polyline points="29.163,32.389 21.393,32.389 4.296,1.477 16.327,0.44 "/>
<polyline points="45.684,1.477 33.308,1.477 25.077,21.163 29.163,32.33 "/>
<path d="M36.416,39.641V19.437c0,0,8.923-14.449,9.268-17.614C45.742,2.11,44.476,22.142,36.416,39.641z"/>
<path d="M45.686,39.641c0,0-9.192,0.144-9.097,0c3.896-5.853,8.695-19.514,9.097-37.358V39.641z"/>
<path d="M4.296,39.896c0,0,7.982,0.646,10.477-1.926c0.114-0.057,0-16.808,0-16.808l-0.576-0.822
	C14.197,20.341,9.56,34.402,4.296,39.896z"/>
</svg>
