<?xml version="1.0" encoding="utf-8"?>
<!-- Generator: Adobe Illustrator 15.0.0, SVG Export Plug-In . SVG Version: 6.00 Build 0)  -->
<!DOCTYPE svg PUBLIC "-//W3C//DTD SVG 1.1//EN" "http://www.w3.org/Graphics/SVG/1.1/DTD/svg11.dtd">
<svg version="1.1" id="Layer_1" xmlns="http://www.w3.org/2000/svg" xmlns:xlink="http://www.w3.org/1999/xlink" x="0px" y="0px"
	 width="50px" height="40.667px" viewBox="0 0 50 40.667" enable-background="new 0 0 50 40.667" xml:space="preserve">
<path fill="none" stroke="#020202" stroke-width="1.2398" stroke-miterlimit="10" d="M6.877,1.003h36.438v9.644
	c0,0,0.207,19.701-18.287,28.517c-0.104,0.068-15.946-7.715-17.806-26.106C7.29,12.989,6.877,1.003,6.877,1.003z"/>
<path fill="#050505" d="M25.912,6.663c-0.37-0.651-0.64-0.994-0.816-1.776c0,0,0.036,0.426-0.604,0.994
	c-0.639,0.569-6.086,6.519-6.108,12.289c-0.022,5.956,1.42,9.518,6.038,13.284c0.053,0.035,0.155,0.051,0.278,0.059
	c-0.037-0.781,0.396-15.118,0.396-15.118c0.177,0.639,0.604,15.06,0.604,15.06s6.319-4.582,6.321-11.722
	C32.022,11.528,26.283,7.313,25.912,6.663z"/>
<polygon fill="#050505" points="24.848,34.791 24.699,31.512 25.7,31.453 25.7,34.791 "/>
</svg>
